<?xml version="1.0" standalone="no"?>
<!DOCTYPE svg PUBLIC "-//W3C//DTD SVG 20010904//EN"
 "http://www.w3.org/TR/2001/REC-SVG-20010904/DTD/svg10.dtd">
<svg version="1.0" xmlns="http://www.w3.org/2000/svg"
 width="156.000000pt" height="50.000000pt" viewBox="0 0 156.000000 50.000000"
 preserveAspectRatio="xMidYMid meet">

<g transform="translate(0.000000,50.000000) scale(0.100000,-0.100000)"
fill="#B2B9FF" stroke="none">
<path d="M190 471 c-56 -22 -118 -61 -148 -93 -51 -56 -48 -132 11 -241 76
-143 146 -163 298 -87 110 56 151 122 129 208 -17 68 -67 157 -112 197 -32 30
-45 35 -86 35 -26 -1 -67 -9 -92 -19z m123 -112 c30 -14 57 -59 57 -96 0 -50
-21 -79 -77 -104 -29 -13 -53 -27 -53 -31 0 -5 -13 -8 -29 -8 -46 0 -61 30
-61 125 0 107 12 125 85 125 30 0 65 -5 78 -11z"/>
<path d="M191 245 c1 -47 5 -85 10 -85 13 0 114 53 121 64 14 21 8 73 -10 89
-12 11 -36 17 -71 17 l-52 0 2 -85z"/>
<path d="M1147 353 c-6 -16 -18 -33 -26 -39 -12 -10 -12 -12 2 -20 12 -7 17
-27 19 -79 2 -39 8 -70 13 -70 6 0 11 32 13 71 2 63 5 73 23 77 23 6 17 27 -7
27 -8 0 -14 9 -14 20 0 13 7 20 20 20 11 0 20 5 20 10 0 6 -11 10 -25 10 -18
0 -29 -8 -38 -27z"/>
<path d="M658 306 c-16 -8 -28 -11 -28 -5 0 5 -4 9 -10 9 -6 0 -10 -43 -10
-110 0 -67 4 -110 10 -110 6 0 10 16 10 36 0 31 3 35 18 29 68 -30 122 2 122
73 0 36 -27 82 -50 82 -4 0 -14 2 -22 5 -7 3 -25 -1 -40 -9z m76 -38 c22 -31
20 -64 -4 -88 -25 -25 -55 -25 -80 0 -39 39 -14 110 40 110 18 0 34 -8 44 -22z"/>
<path d="M858 306 c-17 -9 -28 -11 -28 -5 0 6 -5 9 -12 7 -14 -5 -23 -115 -14
-154 11 -41 26 -17 26 39 0 62 20 97 56 97 15 0 24 5 22 12 -6 18 -20 19 -50
4z"/>
<path d="M974 306 c-44 -19 -61 -70 -40 -120 29 -70 116 -72 149 -3 25 50 10
98 -37 121 -40 19 -33 19 -72 2z m78 -33 c22 -20 23 -70 1 -95 -36 -40 -103
-10 -103 45 0 58 60 88 102 50z"/>
<path d="M1294 310 c-76 -30 -67 -155 12 -174 31 -8 80 9 88 30 6 16 -19 20
-29 4 -12 -20 -73 -11 -89 12 -9 12 -16 26 -16 30 0 5 32 8 70 8 66 0 70 1 70
23 0 23 -33 67 -50 67 -4 0 -14 2 -22 4 -7 3 -23 1 -34 -4z m64 -32 c26 -26
13 -38 -38 -38 -34 0 -50 4 -50 13 0 21 22 37 50 37 14 0 31 -5 38 -12z"/>
<path d="M1463 310 c-52 -21 -35 -74 30 -96 20 -7 33 -18 35 -31 4 -29 -32
-40 -63 -19 -38 25 -53 18 -22 -9 33 -30 66 -32 97 -7 36 29 21 67 -32 84 -31
11 -44 21 -46 36 -3 18 2 22 23 22 14 0 35 -5 46 -10 14 -8 19 -7 19 3 0 8
-11 19 -25 25 -30 14 -32 14 -62 2z"/>
</g>
</svg>
