<?xml version="1.0" standalone="no"?>
<!DOCTYPE svg PUBLIC "-//W3C//DTD SVG 20010904//EN"
 "http://www.w3.org/TR/2001/REC-SVG-20010904/DTD/svg10.dtd">
<svg version="1.0" xmlns="http://www.w3.org/2000/svg"
 width="225.000000pt" height="225.000000pt" viewBox="0 0 225.000000 225.000000"
 preserveAspectRatio="xMidYMid meet">

<g transform="translate(0.000000,225.000000) scale(0.100000,-0.100000)"
fill="#B2B9FF" stroke="none">
<path d="M1110 2076 c-159 -36 -431 -159 -610 -277 -178 -118 -296 -264 -331
-409 -40 -173 15 -407 163 -690 229 -436 450 -591 763 -536 129 22 229 57 400
141 635 311 740 607 434 1220 -158 315 -325 492 -518 549 -65 19 -219 20 -301
2z m216 -505 c84 -30 160 -89 214 -167 79 -113 92 -279 33 -406 -54 -115 -146
-196 -269 -236 -78 -25 -119 -47 -169 -87 -78 -63 -133 -79 -208 -63 -65 14
-140 84 -157 146 -7 29 -10 144 -8 360 3 342 4 347 62 410 53 60 106 71 300
66 111 -4 161 -9 202 -23z"/>
<path d="M944 1461 c-53 -23 -54 -32 -54 -364 l0 -309 30 -30 c39 -38 69 -34
137 18 48 37 146 87 238 119 196 71 252 336 102 483 -73 72 -120 86 -287 89
-80 2 -155 -1 -166 -6z"/>
</g>
</svg>
