<?xml version="1.0" standalone="no"?>
<!DOCTYPE svg PUBLIC "-//W3C//DTD SVG 20010904//EN"
 "http://www.w3.org/TR/2001/REC-SVG-20010904/DTD/svg10.dtd">
<svg version="1.0" xmlns="http://www.w3.org/2000/svg"
 width="220.000000pt" height="229.000000pt" viewBox="0 0 220.000000 229.000000"
 preserveAspectRatio="xMidYMid meet">

<g transform="translate(0.000000,229.000000) scale(0.100000,-0.100000)"
fill="b2b9ff" stroke="none">
<path d="M1608 2160 c-95 -51 -125 -189 -61 -288 77 -118 242 -106 311 23 25
49 20 145 -12 199 -46 79 -155 109 -238 66z"/>
<path d="M76 2064 c-14 -14 -16 -71 -16 -483 0 -441 1 -469 18 -484 17 -15 72
-17 585 -17 323 0 576 4 590 9 17 7 26 20 31 46 10 50 1 71 -42 100 l-37 25
-5 -37 -5 -38 -522 -3 -523 -2 0 400 0 400 523 -2 522 -3 5 -169 c3 -100 9
-171 15 -172 6 -2 25 21 43 51 l33 55 -3 154 c-2 111 -7 158 -17 169 -12 15
-67 17 -597 17 -516 0 -584 -2 -598 -16z"/>
<path d="M602 1873 c2 -10 90 -81 196 -159 191 -138 216 -160 206 -176 -3 -5
-2 -22 1 -39 6 -24 30 -48 121 -115 184 -136 198 -142 248 -103 24 19 26 26
26 99 0 43 3 85 6 94 8 22 44 21 44 -1 0 -10 1 -305 3 -655 2 -628 2 -637 23
-665 48 -65 135 -65 174 0 19 30 20 53 20 425 0 351 2 393 16 399 9 3 20 0 25
-8 5 -8 9 -190 9 -405 0 -374 1 -392 20 -416 25 -33 73 -52 106 -44 15 4 39
20 55 36 l29 28 0 661 0 661 25 0 25 0 0 -243 c0 -206 2 -246 16 -265 36 -52
109 -48 133 6 9 19 13 109 12 309 0 258 -1 286 -19 326 -38 85 -124 127 -262
127 l-88 0 -36 -70 c-21 -38 -40 -70 -44 -70 -4 0 -24 32 -45 70 l-38 70 -83
0 c-152 0 -239 -54 -272 -167 -9 -32 -18 -60 -19 -61 -2 -2 -33 17 -70 42 -59
40 -72 45 -104 40 -35 -6 -46 1 -234 140 -109 80 -205 146 -213 146 -9 0 -14
-7 -12 -17z"/>
</g>
</svg>
